<svg id="visual" viewBox="0 0 900 600" width="900" height="600" xmlns="http://www.w3.org/2000/svg" xmlns:xlink="http://www.w3.org/1999/xlink" version="1.1"><rect x="0" y="0" width="900" height="600" fill="#429fd3"></rect><defs><linearGradient id="grad1_0" x1="33.3%" y1="0%" x2="100%" y2="100%"><stop offset="20%" stop-color="#429fd3" stop-opacity="1"></stop><stop offset="80%" stop-color="#429fd3" stop-opacity="1"></stop></linearGradient></defs><defs><linearGradient id="grad2_0" x1="0%" y1="0%" x2="66.7%" y2="100%"><stop offset="20%" stop-color="#429fd3" stop-opacity="1"></stop><stop offset="80%" stop-color="#429fd3" stop-opacity="1"></stop></linearGradient></defs><g transform="translate(900, 0)"><path d="M0 486.7C-35 478.2 -70 469.7 -105.7 463.1C-141.4 456.4 -177.7 451.6 -211.2 438.5C-244.7 425.5 -275.4 404.1 -302.4 379.2C-329.3 354.3 -352.5 325.9 -370.6 295.5C-388.7 265.2 -401.6 232.9 -419 201.8C-436.3 170.6 -457.9 140.7 -469.9 107.3C-481.9 73.8 -484.3 36.9 -486.7 0L0 0Z" fill="#44e85c"></path></g><g transform="translate(0, 600)"><path d="M0 -486.7C35 -476.9 70 -467 104.4 -457.2C138.7 -447.5 172.5 -437.8 203.5 -422.6C234.5 -407.3 262.8 -386.6 291.8 -365.9C320.8 -345.2 350.6 -324.7 374.5 -298.7C398.4 -272.6 416.5 -241 433.4 -208.7C450.2 -176.4 465.9 -143.2 474.5 -108.3C483.2 -73.4 485 -36.7 486.7 0L0 0Z" fill="#44e85c"></path></g></svg>